Little Big Soldier 2010 BluRay 720p ~ Kishan(Wall.e)

Cover


General
Format                                   : Matroska
File size                                : 699 MiB
Duration                                 : 1h 35mn
Overall bit rate                         : 1 024 Kbps
Movie name                               : Little Big Soldier 2010 BluRay 720p ~ Kishan(Wall.e)

Video
ID                                       : 1
Format                                   : AVC
Duration                                 : 1h 35mn
Bit rate                                 : 900 Kbps
Width                                    : 1 280 pixels
Height                                   : 544 pixels
Display aspect ratio                     : 2.35:1
Frame rate                               : 24.000 fps
Stream size                              : 598 MiB (86%)
Title                                    : Little Big Soldier 2010 BluRay 720p ~ Kishan(Wall.e)
Language                                 : English

Audio
ID                                       : 2
Codec ID/                                : MP3
Duration                                 : 1h 35mn
Bit rate                                 : 128 Kbps
Channel(s)                               : 2 channels
Stream size                              : 87.4 MiB (12%)
Title                                    : English Audio ~ Kishan(Wall.e)
Language                                 : English


Screenshots

Sample
A Big Thanks To 3Li